<svg xmlns="http://www.w3.org/2000/svg" xmlns:xlink="http://www.w3.org/1999/xlink" id="Camada_1" x="0px" y="0px" viewBox="0 0 512 512" style="enable-background:new 0 0 512 512;" xml:space="preserve"><style type="text/css">
	.st0{fill:#5C2C8A;}
	.st1{fill:#B8BE14;}
</style><path class="st0" d="M372,16H140c-15.5,0-28,12.5-28,28v424c0,15.5,12.5,28,28,28h232c15.5,0,28-12.5,28-28V44  C400,28.5,387.5,16,372,16z M140,32h232c6.6,0,12,5.4,12,12v20H128V44C128,37.4,133.4,32,140,32z M384,432H128V80h256V432z M372,480  H140c-6.6,0-12-5.4-12-12v-20h256v20C384,474.6,378.6,480,372,480z"/><path class="st0" d="M272,456h-32c-4.4,0-8,3.6-8,8s3.6,8,8,8h32c4.4,0,8-3.6,8-8S276.4,456,272,456z"/><path class="st1" d="M160,192h24v80c0,4.4,3.6,8,8,8h24v76c0,15.5,12.5,28,28,28h92c13.2,0,24-10.8,24-24v-96c0-4.4-3.6-8-8-8h-8  v-28c0-11-9-20-20-20h-12v-16h24c4.4,0,8-3.6,8-8c0-0.4,0-0.8-0.1-1.1l-5-35.2c-2.2-15.8-13.2-28.9-28.3-33.9l-4.1-1.4  c-0.2-0.1-0.4-0.1-0.6-0.2l-32-8c-0.6-0.2-51.2-0.2-51.9,0l-32,8c-0.2,0.1-0.4,0.1-0.6,0.2l-4.1,1.4c-15.1,5-26.1,18.1-28.3,33.9  l-5,35.2c-0.6,4.4,2.4,8.4,6.8,9.1C159.2,192,159.6,192,160,192L160,192z M232,356v-84h80v96h-68C237.4,368,232,362.6,232,356z   M296,256h-40v-28c0-2.2,1.8-4,4-4h32c2.2,0,4,1.8,4,4V256z M344,360c0,4.4-3.6,8-8,8h-8v-96h16V360z M328,228v28h-16v-28  c0-1.3-0.1-2.7-0.4-4H324C326.2,224,328,225.8,328,228z M264,120v8c0,8.8-7.2,16-16,16c-8.8,0-16-7.2-16-16v-8H264z M172.9,149.9  c1.4-9.8,8.2-17.9,17.5-21l3.8-1.3l21.8-5.4v5.8c0,17.7,14.3,32,32,32s32-14.3,32-32v-5.8l21.8,5.4l3.8,1.3  c9.4,3.1,16.2,11.2,17.5,21l3.7,26.1H304c-4.4,0-8,3.6-8,8v24.4c-1.3-0.3-2.7-0.4-4-0.4h-32c-11,0-20,9-20,20v28h-16  c-4.4,0-8,3.6-8,8l0,0h-16v-80c0-4.4-3.6-8-8-8h-22.8L172.9,149.9z"/><circle class="st0" cx="256" cy="408" r="10"/><circle class="st0" cx="226" cy="408" r="10"/><circle class="st0" cx="286" cy="408" r="10"/><path class="st0" d="M248,56h16c4.4,0,8-3.6,8-8s-3.6-8-8-8h-16c-4.4,0-8,3.6-8,8S243.6,56,248,56z"/></svg>