<svg xmlns="http://www.w3.org/2000/svg" viewBox="0 0 252 37" fill="none"><path d="M61.3377 32.5393C59.9412 29.9777 58.5201 26.9776 57.0826 23.5391C55.645 20.1005 54.2815 16.3619 53 12.3079H59.4895C59.7605 13.3079 60.0808 14.3926 60.4505 15.5619C60.8201 16.7235 61.2062 17.9081 61.6005 19.1005C62.003 20.2928 62.3973 21.4467 62.7916 22.5775C63.1941 23.7083 63.5802 24.7314 63.9663 25.6545C64.3195 24.7314 64.7056 23.7083 65.1163 22.5775C65.5271 21.4467 65.9296 20.2928 66.3238 19.1005C66.7264 17.9081 67.1042 16.7235 67.4739 15.5619C67.8435 14.3926 68.1639 13.3079 68.4431 12.3079H74.7683C73.4787 16.3619 72.1151 20.1005 70.6776 23.5391C69.24 26.9776 67.8271 29.9777 66.4306 32.5393H61.3377Z" fill="white"/><path d="M73.1472 22.5775C73.1472 20.7852 73.443 19.2159 74.0262 17.8697C74.6177 16.5235 75.3898 15.4004 76.3509 14.5004C77.3038 13.6003 78.4127 12.9234 79.6531 12.4618C80.9017 12.0003 82.1832 11.7695 83.4975 11.7695C86.5615 11.7695 88.9848 12.6465 90.7673 14.4081C92.5416 16.1619 93.437 18.7466 93.437 22.1544C93.437 22.4852 93.4205 22.8545 93.3959 23.2545C93.363 23.6468 93.3384 24.0006 93.3138 24.3083H79.4313C79.5627 25.4853 80.1542 26.4237 81.1974 27.116C82.2325 27.8084 83.6289 28.1546 85.3868 28.1546C86.504 28.1546 87.6129 28.0623 88.689 27.87C89.7733 27.6777 90.6523 27.4392 91.3423 27.1545L92.1637 31.8086C91.8352 31.9624 91.3916 32.1162 90.8494 32.2701C90.2991 32.4239 89.6912 32.5624 89.0176 32.6778C88.344 32.7932 87.6294 32.8855 86.8654 32.9624C86.0933 33.0394 85.3293 33.0777 84.5653 33.0777C82.6185 33.0777 80.9264 32.8086 79.4889 32.2701C78.0513 31.7316 76.8602 30.9931 75.9155 30.0623C74.9708 29.1238 74.2727 28.0161 73.8209 26.7314C73.3691 25.4468 73.1472 24.0622 73.1472 22.5775ZM87.5225 20.3851C87.4897 19.9004 87.4076 19.4235 87.2515 18.962C87.1036 18.5004 86.8654 18.0927 86.5533 17.7312C86.2411 17.3696 85.8386 17.0773 85.3621 16.8465C84.8857 16.6157 84.2861 16.5004 83.5797 16.5004C82.8896 16.5004 82.3064 16.608 81.8135 16.8311C81.3207 17.0465 80.9099 17.3311 80.5814 17.6927C80.2528 18.0542 79.9981 18.4696 79.8174 18.9466C79.6449 19.4158 79.5135 19.9004 79.4313 20.3851H87.5225Z" fill="white"/><path d="M94.9046 13.0002C95.9396 12.7155 97.2868 12.454 98.9297 12.2155C100.573 11.9693 102.298 11.8463 104.105 11.8463C105.937 11.8463 107.465 12.0694 108.68 12.5232C109.896 12.9694 110.865 13.6002 111.58 14.4233C112.286 15.2464 112.796 16.2157 113.1 17.3465C113.395 18.4773 113.551 19.7312 113.551 21.1158V32.5392H107.432V21.8082C107.432 19.962 107.169 18.6542 106.651 17.8849C106.126 17.1157 105.156 16.731 103.735 16.731C103.292 16.731 102.832 16.7542 102.339 16.7926C101.846 16.8311 101.402 16.8695 101.024 16.9233V32.5392H94.9046V13.0002Z" fill="white"/><path d="M121.315 22.2697C121.315 24.039 121.734 25.4621 122.589 26.539C123.435 27.616 124.692 28.1545 126.367 28.1545C126.909 28.1545 127.419 28.1391 127.887 28.1006C128.347 28.0622 128.733 28.0161 129.037 27.9622V17.5388C128.651 17.308 128.15 17.1157 127.534 16.9619C126.918 16.808 126.293 16.7311 125.669 16.7311C122.761 16.7311 121.315 18.5773 121.315 22.2697ZM135.157 31.8854C134.606 32.0393 133.974 32.1854 133.267 32.3315C132.553 32.47 131.805 32.5931 131.025 32.6931C130.245 32.7931 129.456 32.8777 128.643 32.947C127.838 33.0085 127.066 33.0393 126.326 33.0393C124.544 33.0393 122.958 32.7931 121.562 32.3084C120.165 31.8238 118.982 31.1238 118.03 30.2161C117.068 29.3007 116.337 28.2007 115.828 26.9084C115.319 25.6083 115.072 24.1544 115.072 22.539C115.072 20.9004 115.286 19.4158 115.73 18.1003C116.165 16.7772 116.797 15.6541 117.619 14.731C118.44 13.8079 119.443 13.1002 120.634 12.6156C121.825 12.1309 123.188 11.8848 124.724 11.8848C125.57 11.8848 126.334 11.9617 127 12.1155C127.673 12.2694 128.347 12.4848 129.037 12.7695V6.92307L135.157 6V31.8854Z" fill="white"/><path d="M218.117 22.2697C218.117 24.039 218.536 25.4621 219.391 26.539C220.237 27.616 221.494 28.1545 223.169 28.1545C223.712 28.1545 224.221 28.1391 224.689 28.1006C225.149 28.0622 225.535 28.0161 225.839 27.9622V17.5388C225.453 17.308 224.952 17.1157 224.336 16.9619C223.72 16.808 223.095 16.7311 222.471 16.7311C219.563 16.7311 218.117 18.5773 218.117 22.2697ZM231.959 31.8854C231.409 32.0393 230.776 32.1854 230.07 32.3315C229.355 32.47 228.607 32.5931 227.827 32.6931C227.047 32.7931 226.258 32.8777 225.445 32.947C224.64 33.0085 223.868 33.0393 223.128 33.0393C221.346 33.0393 219.76 32.7931 218.364 32.3084C216.968 31.8238 215.785 31.1238 214.832 30.2161C213.871 29.3007 213.14 28.2007 212.63 26.9084C212.121 25.6083 211.875 24.1544 211.875 22.539C211.875 20.9004 212.088 19.4158 212.532 18.1003C212.967 16.7772 213.6 15.6541 214.421 14.731C215.242 13.8079 216.245 13.1002 217.436 12.6156C218.627 12.1309 219.99 11.8848 221.527 11.8848C222.373 11.8848 223.137 11.9617 223.802 12.1155C224.476 12.2694 225.149 12.4848 225.839 12.7695V6.92307L231.959 6V31.8854Z" fill="white"/><path d="M154.333 32.291C153.804 32.4415 153.215 32.5659 152.571 32.6767C151.9 32.7924 151.181 32.8882 150.414 32.9654C149.648 33.0425 148.881 33.0798 148.114 33.0798C146.17 33.0798 144.479 32.8111 143.041 32.2723C141.604 31.7348 140.413 30.9969 139.469 30.0612C138.524 29.1256 137.825 28.0157 137.373 26.7341C136.921 25.4525 136.696 24.0676 136.696 22.5795C136.696 20.7853 136.991 19.215 137.579 17.8687C138.168 16.5224 138.941 15.4001 139.899 14.503C140.858 13.6059 141.96 12.9253 143.206 12.4636C144.451 12.002 145.732 11.7718 147.046 11.7718C150.113 11.7718 152.536 12.6503 154.315 14.4072C156.096 16.1628 156.986 18.7459 156.986 22.1565C156.986 22.4899 156.971 22.8557 156.945 23.2526C156.917 23.6508 156.89 24.0029 156.862 24.3103H142.98C143.117 25.4898 143.706 26.4268 144.746 27.1186C145.786 27.8104 147.183 28.1575 148.935 28.1575C150.058 28.1575 151.162 28.0729 152.243 27.8689C153.678 27.5964 155.049 27.1609 156.263 26.5474C156.213 26.5848 156.162 26.6221 156.113 26.6607C154.844 27.6412 154.209 29.0683 154.209 30.9447C154.209 31.4225 154.25 31.8717 154.333 32.291ZM151.072 20.3871C151.044 19.9006 150.955 19.4265 150.804 18.9649C150.653 18.5033 150.421 18.0927 150.106 17.7331C149.791 17.3747 149.394 17.0799 148.916 16.8484C148.436 16.6182 147.841 16.5025 147.128 16.5025C146.444 16.5025 145.856 16.612 145.363 16.8298C144.87 17.0475 144.459 17.3362 144.13 17.6945C143.801 18.0541 143.548 18.4709 143.37 18.945C143.192 19.4191 143.063 19.9006 142.98 20.3871H151.072Z" fill="white"/><path d="M158.611 25.4176V13.2661C159.13 13.138 159.74 13.0023 160.438 12.8617C161.137 12.7211 161.876 12.593 162.657 12.4773C163.437 12.3615 164.238 12.2719 165.059 12.2085C165.88 12.1438 166.688 12.1115 167.483 12.1115C169.044 12.1115 170.31 12.2981 171.281 12.6689C172.254 13.0409 173.054 13.4839 173.684 13.9965C174.561 13.4067 175.566 12.9451 176.704 12.6116C177.84 12.2782 178.887 12.1115 179.845 12.1115C181.571 12.1115 182.987 12.3367 184.096 12.7846C185.205 13.2338 186.088 13.8683 186.746 14.6883C187.402 15.5095 187.854 16.4838 188.101 17.6123C188.347 18.7396 188.471 19.9963 188.471 21.3812V32.8048H182.351V22.0743C182.351 20.2278 182.097 18.92 181.591 18.1498C181.084 17.3809 180.215 16.9964 178.982 16.9964C178.654 16.9964 178.196 17.0736 177.607 17.2266C177.019 17.3809 176.532 17.5738 176.148 17.804C176.34 18.3937 176.463 19.0159 176.519 19.6703C176.573 20.3236 176.6 21.0216 176.6 21.7657V32.8048H170.48V22.0743C170.48 20.2278 170.228 18.92 169.721 18.1498C169.214 17.3809 168.345 16.9964 167.113 16.9964C166.729 16.9964 166.332 17.0163 165.921 17.0537C165.511 17.0922 165.114 17.137 164.731 17.1893V26.6631L164.727 26.6606C163.458 25.6814 162.023 25.1911 160.421 25.1911C159.791 25.1911 159.188 25.267 158.611 25.4176Z" fill="white"/><path d="M210.905 22.6488C210.905 24.2412 210.658 25.695 210.165 27.0182C209.672 28.3336 208.958 29.4644 208.03 30.4029C207.093 31.3337 205.984 32.0567 204.678 32.5721C203.38 33.0875 201.918 33.3414 200.308 33.3414C198.714 33.3414 197.277 33.0875 195.971 32.5721C194.673 32.0567 193.556 31.3337 192.627 30.4029C191.691 29.4644 190.968 28.3336 190.451 27.0182C189.925 25.695 189.67 24.2412 189.67 22.6488C189.67 21.0565 189.933 19.6103 190.467 18.3025C191.001 16.9948 191.74 15.8794 192.685 14.9563C193.63 14.0332 194.755 13.3178 196.053 12.8024C197.359 12.287 198.772 12.0331 200.308 12.0331C201.869 12.0331 203.298 12.287 204.596 12.8024C205.902 13.3178 207.011 14.0332 207.947 14.9563C208.876 15.8794 209.599 16.9948 210.124 18.3025C210.642 19.6103 210.905 21.0565 210.905 22.6488ZM204.662 22.6488C204.662 20.8796 204.284 19.4872 203.528 18.4795C202.772 17.464 201.704 16.9564 200.308 16.9564C198.911 16.9564 197.827 17.464 197.063 18.4795C196.291 19.4872 195.913 20.8796 195.913 22.6488C195.913 24.4181 196.291 25.8258 197.063 26.8643C197.827 27.9028 198.911 28.4182 200.308 28.4182C201.704 28.4182 202.772 27.9028 203.528 26.8643C204.284 25.8258 204.662 24.4181 204.662 22.6488Z" fill="white"/><path d="M243.007 28.8029C243.606 28.8029 244.181 28.7875 244.732 28.7644C245.274 28.7413 245.718 28.7028 246.046 28.649V24.3027C245.8 24.2488 245.43 24.2027 244.937 24.1489C244.444 24.095 243.993 24.0719 243.582 24.0719C243.007 24.0719 242.465 24.1027 241.955 24.172C241.446 24.2335 241.002 24.3566 240.625 24.5335C240.239 24.7104 239.935 24.9565 239.721 25.2642C239.499 25.5719 239.392 25.9566 239.392 26.4181C239.392 27.3181 239.713 27.9413 240.354 28.2874C240.994 28.6336 241.881 28.8029 243.007 28.8029ZM242.514 12.0331C244.321 12.0331 245.824 12.2254 247.032 12.6101C248.231 12.9947 249.201 13.5486 249.923 14.264C250.646 14.9794 251.164 15.8563 251.468 16.8794C251.763 17.9026 251.919 19.0487 251.919 20.3026V32.226C251.041 32.4029 249.825 32.6183 248.264 32.8645C246.703 33.1029 244.814 33.2261 242.596 33.2261C241.2 33.2261 239.935 33.1106 238.793 32.8799C237.659 32.6491 236.682 32.2722 235.86 31.7491C235.039 31.2183 234.406 30.5336 233.971 29.6874C233.527 28.8413 233.314 27.8028 233.314 26.572C233.314 25.3951 233.568 24.395 234.069 23.5719C234.579 22.7488 235.252 22.0949 236.107 21.6103C236.953 21.1256 237.922 20.7718 239.023 20.5564C240.115 20.3333 241.249 20.2257 242.432 20.2257C243.22 20.2257 243.927 20.2565 244.543 20.3257C245.159 20.3872 245.66 20.4718 246.046 20.5718V20.0334C246.046 19.0564 245.726 18.2794 245.102 17.6871C244.469 17.0948 243.376 16.8024 241.816 16.8024C240.773 16.8024 239.746 16.8717 238.735 17.0179C237.717 17.1563 236.846 17.3563 236.107 17.6102L235.326 12.9947C235.68 12.8947 236.123 12.7869 236.657 12.6716C237.191 12.5562 237.774 12.4485 238.407 12.3639C239.031 12.2716 239.696 12.1947 240.395 12.1331C241.093 12.0639 241.799 12.0331 242.514 12.0331Z" fill="white"/><path d="M164.686 30.943C164.686 32.2311 164.245 33.2101 163.374 33.8885C162.503 34.5583 161.522 34.8933 160.421 34.8933C159.321 34.8933 158.331 34.5583 157.459 33.8885C156.588 33.2101 156.157 32.2311 156.157 30.943C156.157 29.6548 156.588 28.6758 157.459 28.006C158.331 27.3275 159.321 26.9926 160.421 26.9926C161.522 26.9926 162.503 27.3275 163.374 28.006C164.245 28.6758 164.686 29.6548 164.686 30.943Z" fill="#2BE1AC"/><path fill-rule="evenodd" clip-rule="evenodd" d="M46.7242 33.0614C38.8145 28.5219 32.0844 26.6101 26.5277 26.0781C23.6328 30.2985 19.3211 33.2349 14.0756 35.0959C9.53811 36.7062 6.39887 37.1702 4.41357 36.9478C2.3065 36.7124 1.09613 35.7853 0.464736 34.5991C-0.327934 33.1111 -0.165852 31.2569 1.41223 29.3665C2.96935 27.5026 6.17712 25.4342 10.9783 23.8287C14.1393 22.7715 18.5204 21.6615 24.1174 21.7943C24.4593 21.1099 24.7617 20.3906 25.0222 19.6352C25.71 17.6416 25.3705 15.8149 24.7472 14.2017C23.9997 12.266 22.8603 10.5932 22.1595 9.23285C21.2911 7.54677 20.5339 5.24368 21.9475 2.89366C23.9312 -0.404069 28.3388 -0.742265 31.1168 1.16592C33.6206 2.88586 34.5133 6.76521 32.057 9.57197C31.2982 10.4394 29.9395 10.5597 29.0242 9.84023C28.109 9.12089 27.9816 7.83254 28.7412 6.96507C29.4661 6.13613 29.3282 4.98054 28.588 4.47252C27.7163 3.8734 26.3132 3.88089 25.6907 4.91641C25.123 5.85962 25.6834 6.7646 26.0318 7.4413C26.7857 8.90506 27.9897 10.7153 28.7936 12.7982C29.7226 15.2037 30.1427 17.9309 29.1178 20.9037C28.9702 21.3321 28.8114 21.7514 28.642 22.1611C34.4052 22.9511 41.2094 25.0931 49.0498 29.6183C48.6362 29.7684 48.2451 29.9872 47.8774 30.2748C47.1073 30.8763 46.7218 31.7537 46.7218 32.9062C46.7218 32.9582 46.7226 33.0102 46.7242 33.0614ZM21.1717 25.9694C17.5793 26.1766 14.6602 26.9278 12.412 27.6797C9.1954 28.7555 6.82061 30.0123 5.40057 31.2798C4.97319 31.6612 4.64581 32.0288 4.44744 32.3926C4.37083 32.5333 4.24988 32.6448 4.31117 32.7587C4.36358 32.8573 4.51437 32.8252 4.67323 32.8558C4.94095 32.907 5.24978 32.9261 5.60217 32.92C7.2125 32.8909 9.48408 32.3651 12.5653 31.2714C15.9609 30.0669 18.9018 28.3349 21.1717 25.9694Z" fill="#2BE1AC"/><path d="M53.0796 32.9048C53.0796 33.696 52.8125 34.2973 52.2838 34.714C51.755 35.1255 51.1596 35.3312 50.4917 35.3312C49.8238 35.3312 49.2227 35.1255 48.694 34.714C48.1653 34.2973 47.9037 33.696 47.9037 32.9048C47.9037 32.1135 48.1653 31.5122 48.694 31.1007C49.2227 30.684 49.8238 30.4782 50.4917 30.4782C51.1596 30.4782 51.755 30.684 52.2838 31.1007C52.8125 31.5122 53.0796 32.1135 53.0796 32.9048Z" fill="white"/></svg>